<mxfile host="65bd71144e">
    <diagram id="NLMdwFuDThJSYHxl9u7S" name="Page-1">
        <mxGraphModel dx="2553" dy="1110" grid="1" gridSize="10" guides="1" tooltips="1" connect="1" arrows="1" fold="1" page="1" pageScale="1" pageWidth="827" pageHeight="1169" math="0" shadow="0">
            <root>
                <mxCell id="0"/>
                <mxCell id="1" parent="0"/>
                <mxCell id="13" value="" style="verticalLabelPosition=bottom;verticalAlign=top;html=1;shape=mxgraph.basic.rect;fillColor2=none;strokeWidth=1;size=20;indent=5;fillColor=#FFFFFF;strokeColor=#36393d;" parent="1" vertex="1">
                    <mxGeometry x="90" y="140" width="680" height="830" as="geometry"/>
                </mxCell>
                <mxCell id="14" value="&lt;p style=&quot;line-height: 1.2&quot;&gt;&lt;span style=&quot;font-size: 24px&quot;&gt;&amp;nbsp; &amp;nbsp; &amp;nbsp;Quere strings extra website.&lt;/span&gt;&lt;/p&gt;" style="shape=partialRectangle;whiteSpace=wrap;html=1;top=0;left=0;fillColor=#FFFFFF;align=left;fontColor=#000000;strokeColor=#000000;" parent="1" vertex="1">
                    <mxGeometry x="90" y="80" width="680" height="60" as="geometry"/>
                </mxCell>
                <mxCell id="15" value="" style="verticalLabelPosition=bottom;verticalAlign=top;html=1;shape=mxgraph.basic.patternFillRect;fillStyle=diagGrid;step=5;fillStrokeWidth=0.2;fillStrokeColor=#dddddd;" parent="1" vertex="1">
                    <mxGeometry x="120" y="170" width="290" height="120" as="geometry"/>
                </mxCell>
                <mxCell id="16" value="&lt;font face=&quot;helvetica, arial, sans-serif&quot; color=&quot;#000000&quot; style=&quot;font-size: 40px&quot;&gt;*IMAGE*&lt;/font&gt;" style="text;whiteSpace=wrap;html=1;fontSize=24;strokeWidth=22;" parent="1" vertex="1">
                    <mxGeometry x="180" y="200" width="190" height="90" as="geometry"/>
                </mxCell>
                <mxCell id="17" value="&lt;span style=&quot;color: rgba(0 , 0 , 0 , 0.87) ; font-family: &amp;#34;helvetica&amp;#34; , &amp;#34;arial&amp;#34; , sans-serif&quot;&gt;&lt;font style=&quot;font-size: 16px&quot;&gt;Input the length and width (cm), for the rectangle&lt;/font&gt;&lt;/span&gt;" style="text;html=1;resizable=0;autosize=1;align=center;verticalAlign=middle;points=[];fillColor=none;strokeColor=none;rounded=0;fontSize=35;" parent="1" vertex="1">
                    <mxGeometry x="120" y="300" width="360" height="50" as="geometry"/>
                </mxCell>
                <mxCell id="18" value="&lt;div style=&quot;text-align: left&quot;&gt;&lt;font color=&quot;#000000&quot; face=&quot;helvetica, arial, sans-serif&quot;&gt;&lt;span style=&quot;font-size: 16px&quot;&gt;Area = Length x Width&lt;/span&gt;&lt;/font&gt;&lt;/div&gt;&lt;div style=&quot;text-align: left&quot;&gt;&lt;font color=&quot;#000000&quot; face=&quot;helvetica, arial, sans-serif&quot;&gt;&lt;span style=&quot;font-size: 16px&quot;&gt;Perimeter = 2 x (Length + Width)&lt;/span&gt;&lt;/font&gt;&lt;/div&gt;" style="text;html=1;resizable=0;autosize=1;align=center;verticalAlign=middle;points=[];fillColor=none;strokeColor=none;rounded=0;fontSize=35;" parent="1" vertex="1">
                    <mxGeometry x="120" y="330" width="250" height="100" as="geometry"/>
                </mxCell>
                <mxCell id="23" value="&lt;div id=&quot;dimensions&quot; style=&quot;color: rgba(0 , 0 , 0 , 0.87) ; font-family: &amp;#34;helvetica&amp;#34; , &amp;#34;arial&amp;#34; , sans-serif ; font-size: 14px ; font-style: normal ; font-weight: 400 ; letter-spacing: normal ; text-indent: 0px ; text-transform: none ; word-spacing: 0px&quot;&gt;w = 2&lt;/div&gt;&lt;div id=&quot;dimensions&quot; style=&quot;color: rgba(0 , 0 , 0 , 0.87) ; font-family: &amp;#34;helvetica&amp;#34; , &amp;#34;arial&amp;#34; , sans-serif ; font-style: normal ; font-weight: 400 ; letter-spacing: normal ; text-indent: 0px ; text-transform: none ; word-spacing: 0px ; font-size: 14px&quot;&gt;&lt;font style=&quot;font-size: 14px&quot;&gt;l = 3&lt;/font&gt;&lt;/div&gt;&lt;div id=&quot;dimensions&quot; style=&quot;color: rgba(0 , 0 , 0 , 0.87) ; font-family: &amp;#34;helvetica&amp;#34; , &amp;#34;arial&amp;#34; , sans-serif ; font-style: normal ; font-weight: 400 ; letter-spacing: normal ; text-indent: 0px ; text-transform: none ; word-spacing: 0px ; font-size: 14px&quot;&gt;&lt;font style=&quot;font-size: 14px&quot;&gt;The area is: 6cmÂ²&lt;/font&gt;&lt;/div&gt;&lt;font style=&quot;font-size: 14px&quot;&gt;The perimeter is: 10&lt;/font&gt;" style="text;whiteSpace=wrap;html=1;fontSize=16;fontColor=#000000;" parent="1" vertex="1">
                    <mxGeometry x="120" y="430" width="220" height="50" as="geometry"/>
                </mxCell>
            </root>
        </mxGraphModel>
    </diagram>
</mxfile>